<svg xmlns="http://www.w3.org/2000/svg" xmlns:xlink="http://www.w3.org/1999/xlink" version="1.1" x="0px" y="0px" viewBox="0 0 51 51" enable-background="new 0 0 51 51" xml:space="preserve"><g><path d="M45.8054924,41.6916084l-3.8099976,0.0499878c-0.0168457-0.1038818,0.09552-0.876709-0.5599976-1.5499878   c-0.8596802-0.8829956-1.9159546-0.4979858-2.8599854-0.5700073c0.0299683-0.1199951,0.0299683-0.25,0.0100098-0.3800049   c-0.2400513-1.7399902-0.210022-2.3599854-0.1600342-3.5999756c0.2506104-5.5117188-0.4923096-16.4342651-0.5599976-16.8400269   c6.5900269-0.1599731,8.4400024-0.5599976,8.75-1.6500244c0.6503906-2.2944336-7.9297485-5.526062-17.210022-12.8599854   c-1.8799438-1.4899905-2.4399414-1.9699709-4.3799438-1.7700198C23.9632072,2.6350286,12.2329216,8.9861641,4.61549,15.9416084   c-0.5200195,0.4799805-0.6900024,1.1499634-0.4400024,1.7799683c0.2900391,0.75,1.0599976,1.2300415,1.960022,1.2300415h0.0100098   c2.0700073-0.0100098,4.0499878-0.0200195,5.9400024-0.0300293v0.1199951   c1.303833,18.9924927-0.0039063,15.7012939,0.75,20.5100098c0.0199585,0.1500244,0.0599976,0.2799683,0.1099854,0.4000244   L11.11549,39.9715767c-0.5800171,0.0100098-1.039978,0.1900024-1.3699951,0.5400391   c-0.4500122,0.4699707-0.5599976,1.1399536-0.5700073,1.6499634C5.6966667,42.3292427,4.6864128,41.895771,3.86549,42.7415962   c-0.9277954,0.9555054-0.5065308,2.729248-0.6499634,3.7700195c-0.0200195,0.5299683,0.1799927,1.039978,0.5499878,1.4199829   s0.8699951,0.5899658,1.3999634,0.5899658l40.6300049-0.5299683c2.6566162-0.0253296,1.8052979-3.4490967,1.9899902-4.289978   C47.8064079,42.5732002,46.9398308,41.6916084,45.8054924,41.6916084z M12.4555168,17.9215889   c-2,0.0100098-4.1000366,0.0200195-6.3099976,0.0300293l-0.0100098,0.5v-0.5c-0.5599976,0-0.9199829-0.3000488-1.0300293-0.5900269   C4.5797844,16.0851021,22.848156,3.4815862,25.7655144,3.4815862c2.0003052,0,1.2445068,1.1018069,13.9899902,9.0800171   c2.9299927,1.8300171,5.9500122,3.7099609,5.8999634,4.3099976C45.1402702,18.1166573,31.9984856,17.8305855,12.4555168,17.9215889   z M32.0855217,19.0915718c0-0.0700073,0.0099487-0.1399536,0.0299683-0.2099609   c1.7800293-0.0200195,3.3400269-0.0300293,4.7200317-0.0599976c0.039978,0.0899658,0.0499878,0.1699829,0.0499878,0.2299805   c1.380249,20.2564087-0.0210571,14.9786987,0.7099609,20.3300171c0.0100098,0.0799561,0,0.1699829-0.0299683,0.25   L32.86549,39.6916084C32.2258415,37.7746773,33.2129631,35.604084,32.0855217,19.0915718z M28.9655266,34.291584   c0.039978-1.0200195,0.0899658-2.0700073,0.0499878-3.3099976c-0.0733032-2.3093872-0.5339355-11.9845581-0.6400146-12.0899658   c0.960022,0,1.8699951-0.0100098,2.7299805-0.0100098c-0.0199585,0.0899658-0.0299683,0.1900024-0.0199585,0.2799683   c1.3012085,18.9545898-0.0014648,15.69104,0.75,20.5100098c0,0.0100098,0,0.0200195,0.0099487,0.0300293l-2.7999878,0.039978   C29.2598991,39.0983467,28.7558098,38.965107,28.9655266,34.291584z M22.5855217,19.0315742   c0-0.039978,0-0.0899658,0.0099487-0.1300049c1.5982056,0,3.284668,0.0009155,4.7800293-0.0099487   c0.0100098,0.039978,0.0100098,0.0699463,0.0100098,0.0999756c1.253418,18.2026978,0.0772095,15.7595825,0.7099609,20.3300171   c0.0200195,0.1399536-0.0299683,0.289978-0.1399536,0.4299927l-4.4800415,0.0599976   C22.7416496,38.9308052,23.6494865,34.6136665,22.5855217,19.0315742z M19.5855217,39.1216011   c-0.416626-3.0995483,0.0302124-5.0913086-0.0700073-8.2000122c-0.1199951-3.7700195-0.4000244-8.6599731-0.6300049-12.0100098   c0.9299927-0.0100098,1.8300171-0.0100098,2.7099609-0.0100098c-0.0099487,0.0700073-0.0099487,0.1300049-0.0099487,0.2000122   c1.1687622,17.0252075,0.0803833,18.2156372,0.7999878,20.7299805l-2.8800049,0.0300293   C19.5954704,39.6316109,19.61549,39.3716011,19.5855217,39.1216011z M13.0855217,18.9715767v-0.0499878   c1.6699829-0.0100098,3.2699585-0.0100098,4.7999878-0.0100098c0,0.225769,0.4692993,6.5455322,0.6300049,12.0499878   c0.039978,1.1900024-0.0100098,2.2300415-0.0499878,3.2300415c-0.2377319,5.4332275,0.5214233,5.2085571-0.2000122,5.6900024   l-4.0900269,0.0499878c-0.25-0.1600342-0.3200073-0.3500366-0.3499756-0.5300293   C13.0998039,34.671711,14.3737907,37.8394356,13.0855217,18.9715767z M10.4655266,41.2016182   c0.1399536-0.1500244,0.3599854-0.2300415,0.6599731-0.2300415c0.100647-0.0013428,7.9682007-0.1066895,7.4699707-0.0999756   l4.5200195-0.0499878c0.0983276-0.0012817,8.7717896-0.1135254,9.2704468-0.1199951l5.6795654-0.0700073   c1.9657593,0.0557251,3.2716064-0.6189575,2.8800049,2.1199951c-0.1000366,0.4099731-0.4799805,0.7199707-0.9199829,0.7199707   l-28.9000244,0.3800049c-0.0062256,0-0.0044556,0-0.0100098,0C9.7362175,43.8515816,10.1212883,41.5621529,10.4655266,41.2016182z    M45.7755241,46.9915962L5.1754875,47.5215645l-0.0100098,0.5v-0.5c-0.5550537,0-0.9599609-0.4954224-0.9599609-0.8999634   c0.1574707-0.8399658-0.1959229-2.5935059,0.3699951-3.1900024c0.3994751-0.3729858,0.9015503-0.1619263,4.6099854-0.2700195   c0.3189697,2.6162109,2.5078735,1.4708862,30.8499756,1.3099976c1-0.0100098,1.8099976-0.75,1.9100342-1.7299805   c3.7156982,0.0422974,4.0855713-0.2714233,4.5700073,0.2399902c0.1799927,0.1799927,0.2799683,0.4299927,0.2699585,0.6900024   C46.6006584,44.9236031,47.2133904,46.9915962,45.7755241,46.9915962z"/><path d="M35.905468,13.3116035c-6.5534668-4.4777222-4.7921753-2.4318848-9.5299683-5.2600098   c-1.7636719-1.0352173-1.2494507-0.9431152-3.2200317,0.0999756c-2.8999634,1.5100098-6.1899414,3.2200317-8.0899658,5.6400146   c-0.1199951,0.1500244-0.1500244,0.3599854-0.0599976,0.539978c0.1829224,0.3886719,0.7280273,0.2763672,1.1099854,0.25   c0.7200317-0.0699463,2.0800171-0.1999512,4.0100098-0.2099609c8.8599854-0.0300293,12.6400146-0.1000366,14.25-0.1300049   c0.6599731-0.0100098,0.9799805-0.0200195,1.1099854-0.0100098C36.1565056,14.5003242,36.5102654,13.546772,35.905468,13.3116035z    M16.6455193,13.5215645c2.0856934-2.0629272,5.40625-3.6707764,8.25-5.1599731   c1.1383667,0.5889282,2.1914673,1.4179688,4.6900024,2.4299927c0.9499512,0.3699951,1.7799683,0.7000122,4.4299927,2.4500122   C24.6576653,13.452961,19.9493523,13.229023,16.6455193,13.5215645z"/></g></svg>